<?xml version="1.0" encoding="UTF-8" standalone="no"?><!DOCTYPE svg PUBLIC "-//W3C//DTD SVG 1.1//EN" "http://www.w3.org/Graphics/SVG/1.1/DTD/svg11.dtd"><svg width="100%" height="100%" viewBox="0 0 3508 2481" version="1.1" xmlns="http://www.w3.org/2000/svg" xmlns:xlink="http://www.w3.org/1999/xlink" xml:space="preserve" xmlns:serif="http://www.serif.com/" style="fill-rule:evenodd;clip-rule:evenodd;stroke-linejoin:round;stroke-miterlimit:2;"><g><g><path d="M455.322,1500.036l153.542,0c20.666,-0 37.419,-16.753 37.419,-37.419l-0,-154.681l50.174,-9.57l0,164.251c-0,48.376 -39.217,87.593 -87.593,87.593l-163.112,-0l9.57,-50.174Zm-126.471,44.826c-7.887,-1.484 -15.67,-3.267 -23.335,-5.336c-105.674,-28.529 -189.067,-111.573 -218.089,-217.045c-2.131,-7.746 -3.97,-15.613 -5.503,-23.588l53.879,10.277c24.324,88.401 94.219,158.005 182.79,181.916l10.258,53.777Zm-246.927,-363.439c1.533,-7.975 3.371,-15.842 5.503,-23.588c29.021,-105.472 112.415,-188.516 218.089,-217.045c7.665,-2.069 15.448,-3.852 23.335,-5.336l-10.258,53.777c-88.57,23.911 -158.465,93.515 -182.79,181.916l-53.879,10.277Zm375.262,-191.371l-10.307,-54.033c8.105,1.606 16.097,3.528 23.962,5.753c103.765,29.349 185.488,111.419 214.351,215.386c2.161,7.784 4.026,15.691 5.582,23.708l-53.928,-10.286c-24.192,-87.141 -92.69,-155.928 -179.661,-180.527Z" style="fill:#f7f7f7;"/><path d="M380.17,1580.536l-48.677,-255.198l-56.354,38.299c-3.089,2.099 -7.233,1.707 -9.873,-0.933c-2.641,-2.641 -3.032,-6.785 -0.933,-9.873l38.299,-56.354l-255.198,-48.677c-3.668,-0.7 -6.322,-3.907 -6.322,-7.642c-0,-3.734 2.654,-6.942 6.322,-7.642l255.198,-48.677l-38.299,-56.354c-2.099,-3.089 -1.707,-7.233 0.933,-9.873c2.641,-2.641 6.785,-3.032 9.873,-0.933l56.354,38.299l48.677,-255.198c0.7,-3.668 3.907,-6.322 7.642,-6.322c3.734,-0 6.942,2.654 7.642,6.322l48.677,255.198l56.354,-38.299c3.089,-2.099 7.233,-1.707 9.873,0.933c2.641,2.641 3.032,6.785 0.933,9.873l-38.299,56.354l255.198,48.677c3.668,0.7 6.322,3.907 6.322,7.642c0,3.734 -2.654,6.942 -6.322,7.642l-255.198,48.677l38.299,56.354c2.099,3.089 1.707,7.233 -0.933,9.873c-2.641,2.641 -6.785,3.032 -9.873,0.933l-56.354,-38.299l-48.677,255.198c-0.7,3.668 -3.907,6.322 -7.642,6.322c-3.734,0 -6.942,-2.654 -7.642,-6.322Z" style="fill:#f7f7f7;"/></g><g><path d="M1032.735,1385.013c-31.668,0 -59.344,-5.819 -83.028,-17.458c-23.684,-11.639 -41.954,-28.285 -54.811,-49.939c-12.857,-21.654 -19.285,-46.826 -19.285,-75.517c0,-28.962 6.564,-54.608 19.691,-76.938c13.128,-22.33 31.127,-39.586 53.999,-51.766c22.872,-12.18 48.518,-18.27 76.938,-18.27c28.15,0 53.66,6.09 76.532,18.27c22.872,12.18 40.871,29.435 53.999,51.766c13.128,22.33 19.691,47.976 19.691,76.938c0,19.488 -4.331,38.097 -12.992,55.826c-8.661,17.729 -19.894,31.736 -33.698,42.022l51.969,0l0,45.067l-149.004,0Zm-6.496,-46.691c30.044,0 53.931,-8.391 71.66,-25.172c17.729,-16.782 26.593,-40.465 26.593,-71.051c0,-20.03 -4.331,-37.623 -12.992,-52.781c-8.661,-15.158 -20.436,-26.796 -35.322,-34.916c-14.887,-8.12 -31.533,-12.18 -49.939,-12.18c-18.406,0 -35.119,4.06 -50.142,12.18c-15.022,8.12 -26.864,19.759 -35.525,34.916c-8.661,15.158 -12.992,32.751 -12.992,52.781c0,30.856 8.864,54.608 26.593,71.254c17.729,16.646 41.751,24.969 72.066,24.969Z" style="fill:#f7f7f7;fill-rule:nonzero;"/><path d="M1290.549,1391.103c-26.255,0 -45.879,-7.105 -58.871,-21.315c-12.992,-14.21 -19.488,-33.089 -19.488,-56.638l0,-123.02l51.157,0l0,118.148c0,28.42 13.263,42.631 39.789,42.631c11.639,0 22.601,-2.774 32.886,-8.323c10.285,-5.549 18.947,-13.872 25.984,-24.969l0,-127.486l51.157,0l0,194.883l-49.533,0l0,-26.39c-9.203,11.097 -20.165,19.285 -32.886,24.563c-12.722,5.278 -26.12,7.917 -40.195,7.917Z" style="fill:#f7f7f7;fill-rule:nonzero;"/><path d="M1527.25,1391.103c-23.278,0 -42.36,-6.158 -57.247,-18.473c-14.887,-12.315 -22.33,-28.894 -22.33,-49.736c0,-21.654 7.037,-38.571 21.112,-50.751c14.075,-12.18 33.834,-18.27 59.277,-18.27c24.631,0 45.879,5.007 63.743,15.022l0,-5.278c0,-13.804 -4.263,-23.819 -12.789,-30.044c-8.526,-6.225 -22.263,-9.338 -41.21,-9.338c-11.909,0 -23.684,1.15 -35.322,3.451c-11.639,2.301 -21.924,5.481 -30.856,9.541l0,-40.195c8.12,-3.789 19.015,-6.902 32.683,-9.338c13.669,-2.436 26.864,-3.654 39.586,-3.654c33.834,0 58.871,7.24 75.111,21.721c16.24,14.481 24.36,34.578 24.36,60.292l0,118.96l-48.315,0l0,-19.082c-8.391,8.12 -17.932,14.346 -28.623,18.676c-10.691,4.331 -23.751,6.496 -39.18,6.496Zm12.586,-37.352c11.368,0 21.654,-2.233 30.856,-6.699c9.203,-4.466 16.24,-10.624 21.112,-18.473l0,-21.518c-14.887,-10.556 -31.939,-15.834 -51.157,-15.834c-27.338,0 -41.007,10.556 -41.007,31.668c0,10.285 3.451,18 10.353,23.142c6.902,5.143 16.849,7.714 29.841,7.714Z" style="fill:#f7f7f7;fill-rule:nonzero;"/><rect x="1690.058" y="1084.975" width="51.157" height="300.038" style="fill:#f7f7f7;fill-rule:nonzero;"/><path d="M1818.762,1156.026c-8.12,0 -14.955,-2.707 -20.503,-8.12c-5.549,-5.413 -8.323,-12.18 -8.323,-20.3c0,-8.12 2.774,-14.955 8.323,-20.503c5.549,-5.549 12.383,-8.323 20.503,-8.323c8.12,0 15.022,2.774 20.706,8.323c5.684,5.549 8.526,12.383 8.526,20.503c0,8.12 -2.842,14.887 -8.526,20.3c-5.684,5.413 -12.586,8.12 -20.706,8.12Zm-25.984,34.104l51.969,0l0,194.883l-51.969,0l0,-194.883Z" style="fill:#f7f7f7;fill-rule:nonzero;"/><path d="M1975.074,1391.103c-21.383,0 -37.623,-5.955 -48.721,-17.864c-11.097,-11.909 -16.646,-28.691 -16.646,-50.345l0,-93.787l-29.232,0l0,-38.977l29.232,0l0,-58.465l51.157,0l0,58.465l46.691,0l0,38.977l-46.691,0l0,87.291c0,12.451 2.301,21.315 6.902,26.593c4.601,5.278 12.992,7.917 25.172,7.917c8.391,0 16.646,-1.895 24.766,-5.684l0,38.977c-11.639,4.601 -25.849,6.902 -42.631,6.902Z" style="fill:#f7f7f7;fill-rule:nonzero;"/><path d="M2084.695,1465.402c-7.037,0 -14.413,-0.474 -22.127,-1.421c-7.714,-0.947 -13.737,-2.233 -18.067,-3.857l0,-38.977c6.767,2.707 15.158,4.06 25.172,4.06c10.285,0 18,-2.301 23.142,-6.902c5.143,-4.601 9.609,-11.909 13.398,-21.924l7.714,-20.3l-84.043,-185.95l51.563,0l60.089,142.102l56.435,-142.102l51.157,0l-85.261,212.341c-8.661,21.383 -19.15,37.217 -31.465,47.503c-12.315,10.285 -28.217,15.428 -47.706,15.428Z" style="fill:#f7f7f7;fill-rule:nonzero;"/><path d="M2467.302,1385.013c-31.668,0 -59.344,-5.819 -83.028,-17.458c-23.684,-11.639 -41.954,-28.285 -54.811,-49.939c-12.857,-21.654 -19.285,-46.826 -19.285,-75.517c0,-28.962 6.564,-54.608 19.691,-76.938c13.128,-22.33 31.127,-39.586 53.999,-51.766c22.872,-12.18 48.518,-18.27 76.938,-18.27c28.15,0 53.66,6.09 76.532,18.27c22.872,12.18 40.871,29.435 53.999,51.766c13.128,22.33 19.691,47.976 19.691,76.938c0,19.488 -4.331,38.097 -12.992,55.826c-8.661,17.729 -19.894,31.736 -33.698,42.022l51.969,0l0,45.067l-149.004,0Zm-6.496,-46.691c30.044,0 53.931,-8.391 71.66,-25.172c17.729,-16.782 26.593,-40.465 26.593,-71.051c0,-20.03 -4.331,-37.623 -12.992,-52.781c-8.661,-15.158 -20.436,-26.796 -35.322,-34.916c-14.887,-8.12 -31.533,-12.18 -49.939,-12.18c-18.406,0 -35.119,4.06 -50.142,12.18c-15.022,8.12 -26.864,19.759 -35.525,34.916c-8.661,15.158 -12.992,32.751 -12.992,52.781c0,30.856 8.864,54.608 26.593,71.254c17.729,16.646 41.751,24.969 72.066,24.969Z" style="fill:#f7f7f7;fill-rule:nonzero;"/><path d="M2725.116,1391.103c-26.255,0 -45.879,-7.105 -58.871,-21.315c-12.992,-14.21 -19.488,-33.089 -19.488,-56.638l0,-123.02l51.157,0l0,118.148c0,28.42 13.263,42.631 39.789,42.631c11.639,0 22.601,-2.774 32.886,-8.323c10.285,-5.549 18.947,-13.872 25.984,-24.969l0,-127.486l51.157,0l0,194.883l-49.533,0l0,-26.39c-9.203,11.097 -20.165,19.285 -32.886,24.563c-12.722,5.278 -26.12,7.917 -40.195,7.917Z" style="fill:#f7f7f7;fill-rule:nonzero;"/><path d="M3006.071,1391.103c-36.27,0 -64.961,-9.067 -86.073,-27.202c-21.112,-18.135 -31.668,-43.443 -31.668,-75.923c0,-31.939 9.338,-57.247 28.014,-75.923c18.676,-18.676 45.337,-28.014 79.983,-28.014c22.736,0 42.157,4.331 58.262,12.992c16.105,8.661 28.217,20.503 36.337,35.525c8.12,15.022 12.18,32.142 12.18,51.36l0,23.548l-166.056,0c3.519,28.962 28.691,43.443 75.517,43.443c12.451,0 25.172,-1.083 38.165,-3.248c12.992,-2.165 24.36,-5.143 34.104,-8.932l0,39.383c-9.203,3.789 -21.045,6.902 -35.525,9.338c-14.481,2.436 -28.894,3.654 -43.24,3.654Zm48.721,-118.554c-0.541,-15.428 -6.022,-27.338 -16.443,-35.728c-10.421,-8.391 -24.699,-12.586 -42.834,-12.586c-17.864,0 -31.939,4.331 -42.225,12.992c-10.285,8.661 -15.699,20.436 -16.24,35.322l117.742,0Z" style="fill:#f7f7f7;fill-rule:nonzero;"/><path d="M3219.63,1391.103c-14.075,0 -29.097,-1.624 -45.067,-4.872c-15.97,-3.248 -28.42,-7.714 -37.352,-13.398l0,-43.443c10.556,6.496 23.142,11.706 37.759,15.631c14.616,3.925 28.42,5.887 41.413,5.887c12.992,0 22.466,-1.15 28.42,-3.451c5.955,-2.301 8.932,-6.564 8.932,-12.789c0,-4.872 -1.556,-8.864 -4.669,-11.977c-3.113,-3.113 -8.12,-5.955 -15.022,-8.526c-6.902,-2.571 -17.526,-5.752 -31.871,-9.541c-16.24,-4.601 -29.029,-9.338 -38.368,-14.21c-9.338,-4.872 -16.376,-11.03 -21.112,-18.473c-4.737,-7.443 -7.105,-17.12 -7.105,-29.029c0,-19.488 7.714,-34.172 23.142,-44.052c15.428,-9.879 36.27,-14.819 62.525,-14.819c13.534,0 26.999,1.286 40.398,3.857c13.398,2.571 23.887,6.158 31.465,10.759l0,41.819c-8.12,-4.872 -18,-8.797 -29.638,-11.774c-11.639,-2.977 -23.548,-4.466 -35.728,-4.466c-13.263,0 -23.278,1.286 -30.044,3.857c-6.767,2.571 -10.15,7.511 -10.15,14.819c0,4.872 1.827,8.729 5.481,11.571c3.654,2.842 8.458,5.278 14.413,7.308c5.955,2.03 16.782,5.075 32.48,9.135c16.782,4.601 29.909,9.609 39.383,15.022c9.473,5.413 16.24,11.909 20.3,19.488c4.06,7.579 6.09,17.052 6.09,28.42c0,17.323 -7.376,31.195 -22.127,41.616c-14.752,10.421 -36.067,15.631 -63.946,15.631Z" style="fill:#f7f7f7;fill-rule:nonzero;"/><path d="M3418.573,1391.103c-21.383,0 -37.623,-5.955 -48.721,-17.864c-11.097,-11.909 -16.646,-28.691 -16.646,-50.345l0,-93.787l-29.232,0l0,-38.977l29.232,0l0,-58.465l51.157,0l0,58.465l46.691,0l0,38.977l-46.691,0l0,87.291c0,12.451 2.301,21.315 6.902,26.593c4.601,5.278 12.992,7.917 25.172,7.917c8.391,0 16.646,-1.895 24.766,-5.684l0,38.977c-11.639,4.601 -25.849,6.902 -42.631,6.902Z" style="fill:#f7f7f7;fill-rule:nonzero;"/></g></g></svg>