<?xml version="1.0" encoding="UTF-8" standalone="no"?><!DOCTYPE svg PUBLIC "-//W3C//DTD SVG 1.1//EN" "http://www.w3.org/Graphics/SVG/1.1/DTD/svg11.dtd"><svg width="100%" height="100%" viewBox="0 0 2393 2393" version="1.1" xmlns="http://www.w3.org/2000/svg" xmlns:xlink="http://www.w3.org/1999/xlink" xml:space="preserve" xmlns:serif="http://www.serif.com/" style="fill-rule:evenodd;clip-rule:evenodd;stroke-linejoin:round;stroke-miterlimit:2;"><g><path d="M1429.129,2092.845l529.756,0c71.302,-0 129.104,-57.802 129.104,-129.104l-0,-533.686l173.114,-33.02l0,566.706c-0,166.911 -135.308,302.218 -302.218,302.218l-562.776,-0l33.02,-173.114Zm-436.357,154.659c-27.213,-5.121 -54.064,-11.272 -80.511,-18.412c-364.601,-98.431 -652.329,-384.954 -752.46,-748.857c-7.354,-26.726 -13.697,-53.869 -18.986,-81.386l185.897,35.459c83.924,305.004 325.08,545.154 630.669,627.653l35.391,185.543Zm-851.957,-1253.954c5.289,-27.516 11.632,-54.659 18.986,-81.386c100.131,-363.903 387.859,-650.426 752.46,-748.857c26.447,-7.14 53.298,-13.291 80.511,-18.412l-35.391,185.543c-305.589,82.499 -546.745,322.649 -630.669,627.653l-185.897,35.459Zm1294.745,-660.278l-35.56,-186.429c27.964,5.542 55.538,12.174 82.676,19.85c358.013,101.262 639.98,384.423 739.564,743.134c7.456,26.858 13.891,54.139 19.26,81.799l-186.066,-35.491c-83.467,-300.658 -319.802,-537.989 -619.875,-622.863Z" style="fill:#f7f7f7;"/><path d="M1169.835,2370.589l-167.949,-880.497l-194.433,132.141c-10.656,7.242 -24.955,5.891 -34.066,-3.22c-9.111,-9.111 -10.462,-23.41 -3.22,-34.066l132.141,-194.433l-880.497,-167.949c-12.656,-2.414 -21.811,-13.481 -21.811,-26.365c-0,-12.884 9.155,-23.951 21.811,-26.365l880.497,-167.949l-132.141,-194.433c-7.242,-10.656 -5.891,-24.955 3.22,-34.066c9.111,-9.111 23.41,-10.462 34.066,-3.22l194.433,132.141l167.949,-880.497c2.414,-12.656 13.481,-21.811 26.365,-21.811c12.884,-0 23.951,9.155 26.365,21.811l167.949,880.497l194.433,-132.141c10.656,-7.242 24.955,-5.891 34.066,3.22c9.111,9.111 10.462,23.41 3.22,34.066l-132.141,194.433l880.497,167.949c12.656,2.414 21.811,13.481 21.811,26.365c0,12.884 -9.155,23.951 -21.811,26.365l-880.497,167.949l132.141,194.433c7.242,10.656 5.891,24.955 -3.22,34.066c-9.111,9.111 -23.41,10.462 -34.066,3.22l-194.433,-132.141l-167.949,880.497c-2.414,12.656 -13.481,21.811 -26.365,21.811c-12.884,0 -23.951,-9.155 -26.365,-21.811Z" style="fill:#f7f7f7;"/></g></svg>